<svg width="223" height="73" viewBox="0 0 223 73" fill="none" xmlns="http://www.w3.org/2000/svg">
<path d="M102.771 24.6169L103.116 24.6449C105.84 24.8721 106.006 24.8876 106.006 27.7317V32.9999H94.0954V27.7317C94.0954 24.8876 94.2551 24.8721 96.9111 24.6449L97.2556 24.6169V22.8214H86.5535V24.62L86.898 24.648C89.7732 24.8783 89.8859 24.8876 89.8859 27.7348V42.0114C89.8859 44.8836 89.7231 44.896 86.9982 45.1232L86.6537 45.1512V46.8999H97.4529V45.1512L97.1084 45.1232C94.1799 44.8898 94.0954 44.8026 94.0954 42.0114V35.371H106.006V42.0114C106.006 44.7995 105.919 44.8867 102.871 45.1232L102.524 45.1512V46.8999H113.52V45.1512L113.176 45.1232C110.335 44.8929 110.163 44.8804 110.163 42.0114V27.7348C110.163 24.8907 110.332 24.8752 113.176 24.648L113.52 24.62V22.8214H102.768V24.6169H102.771Z" fill="white"/>
<path d="M138.984 41.5571C136.741 35.7724 134.53 29.8384 132.391 24.1004L131.686 22.2084L129.891 22.6534L122.067 41.5447C120.802 44.6253 120.392 44.7715 118.137 45.1169L117.817 45.1667V46.8906H126.715V45.1512L126.38 45.1169C125.347 45.008 124.357 44.8555 124.122 44.4821C123.959 44.2239 124.041 43.7135 124.404 42.7085C124.852 41.3486 125.325 40.0075 125.889 38.5014H133.293C133.96 40.2502 134.608 41.9803 135.172 43.5206C135.357 44.0652 135.397 44.3794 135.3 44.5381C135.115 44.8338 134.257 44.9893 133.355 45.1169L133.033 45.1605V46.8906H143.118V45.148L142.78 45.1138C140.584 44.8898 140.149 44.6284 138.996 41.554L138.984 41.5571ZM132.466 36.1396H126.781C126.947 35.704 127.116 35.2621 127.285 34.8202C128.075 32.7572 128.889 30.6319 129.713 28.547L132.463 36.1396H132.466Z" fill="white"/>
<path d="M164.597 24.6293L164.954 24.6449C167.638 24.7694 168.14 25.2392 168.277 26.5866C168.368 27.5419 168.522 29.1445 168.522 32.5362V40.023L153.244 22.8183H147.02V24.62L147.371 24.6449C149.028 24.7631 149.708 25.0245 150.39 25.8087C150.989 26.5773 151.095 26.7266 151.095 29.2503V36.9518C151.095 40.3653 150.938 41.9959 150.801 43.0476C150.66 44.5226 150.036 44.9676 147.916 45.1138L147.565 45.1387V46.8906H157.156V45.1418L156.808 45.1138C154.315 44.9209 153.745 44.5382 153.598 42.9481C153.519 42.1172 153.353 40.3902 153.353 36.9518L153.375 29.1413L169.098 47.2609H170.83V32.5393C170.83 29.0044 170.94 27.489 171.049 26.4715C171.19 25.1366 171.782 24.7445 173.805 24.648L174.162 24.6325V22.8245H164.597V24.6356V24.6293Z" fill="white"/>
<path d="M188.607 32.67C185.619 31.2355 184.103 30.0873 184.103 27.8064C184.103 26.0514 185.247 24.2808 187.799 24.2808C190.652 24.2808 191.686 26.6208 192.325 28.9111L192.416 29.2378L194.22 28.9204L194.173 28.5657C193.866 26.3035 193.694 24.8658 193.531 23.4718L193.503 23.2322L193.271 23.1575C192.093 22.781 190.302 22.28 188.366 22.28C185.976 22.28 183.928 22.9801 182.447 24.3088C181.04 25.5691 180.264 27.3054 180.264 29.2036C180.264 33.42 184.06 35.3057 186.562 36.5504C189.334 38.0004 191.15 39.1269 191.15 41.5167C191.15 43.9065 189.694 45.3628 187.254 45.3628C183.286 45.3628 181.786 40.9566 181.422 39.6061L181.322 39.2389L179.534 39.7523L179.575 40.0697C179.8 41.8247 180.342 45.1045 180.605 45.8606L180.658 46.01L180.802 46.0785C180.871 46.1096 180.946 46.1469 181.031 46.1874C181.394 46.3647 181.892 46.6106 182.666 46.8533C183.853 47.2578 185.14 47.4632 186.49 47.4632C191.542 47.4632 195.21 44.3981 195.21 40.1724C195.21 35.9467 191.548 34.1014 188.604 32.6731L188.607 32.67Z" fill="white"/>
<path d="M213.905 22.8183V24.6107L214.246 24.6418C214.86 24.7009 216.294 24.8347 216.492 25.177C216.604 25.373 216.388 25.8896 216.138 26.4186C215.408 27.9744 214.046 30.4887 212.082 33.8992C211.609 33.0995 211.117 32.278 210.638 31.4782C209.564 29.6859 208.455 27.8344 207.478 26.0794C207.324 25.7994 207.067 25.3264 207.143 25.1801C207.215 25.037 207.609 24.8285 209.072 24.6418L209.401 24.5982V22.8183H199.488V24.6138L199.829 24.6449C201.821 24.8223 202.216 25.121 203.663 27.5326C205.548 30.6163 206.817 32.7976 207.935 34.7238L208.295 35.343C208.922 36.4601 209.037 36.6904 209.037 37.3438V41.9056C209.037 44.784 208.915 44.9022 205.808 45.1138L205.458 45.1387V46.8906H216.949V45.1356L216.598 45.1138C213.347 44.9053 213.222 44.7871 213.222 41.9056V37.1976C213.222 36.2983 213.291 35.9498 213.817 35.0225C215.571 31.8454 216.739 29.9224 218.443 27.3926C219.843 25.2579 220.244 24.8938 222.662 24.6418L222.997 24.6076V22.8183H213.902H213.905Z" fill="white"/>
<path d="M60.542 36.5628C66.6369 36.3232 72.522 35.984 78.1377 35.5546C66.1514 34.6398 52.9437 34.1294 39.0688 34.1294C25.194 34.1294 11.9894 34.6367 0 35.5546C5.91326 36.0058 12.1272 36.3574 18.5666 36.6001V58.905L34.9847 36.9611C36.3409 36.9704 37.7001 36.9767 39.0688 36.9767C40.7633 36.9767 42.4452 36.9673 44.1177 36.9549L60.5389 58.905V36.5628H60.542Z" fill="white"/>
<path d="M60.542 11L43.9924 33.1212C49.6488 33.171 55.1769 33.3048 60.542 33.5164V11Z" fill="white"/>
<path d="M18.5698 11V33.4791C23.9381 33.2768 29.4661 33.1555 35.1163 33.115L18.5698 11Z" fill="white"/>
<path d="M115.237 55.8088V55.3638H116.809V55.9768H116.696L115.237 55.8088ZM116.918 62.219L118.378 62.387V62.832H115.233V62.387L116.693 62.219H116.918ZM116.301 58.8178C116.301 57.6696 116.301 56.5089 116.267 55.3607H117.344C117.31 56.5214 117.31 57.6136 117.31 58.9299V59.2628C117.31 60.5231 117.31 61.6837 117.344 62.832H116.267C116.301 61.7055 116.301 60.5449 116.301 59.3748V58.8178ZM116.809 58.8739H118.212C119.424 58.8739 120.007 58.2266 120.007 57.3242C120.007 56.4218 119.502 55.8742 118.334 55.8742H116.809V55.3607H118.347C120.063 55.3607 121.075 56.0858 121.075 57.3242C121.075 58.2733 120.323 59.1321 118.851 59.2535L118.885 59.1632C119.693 59.241 120.188 59.6082 120.492 60.6133L121.043 62.4648L120.696 62.2532L121.851 62.387V62.832C121.648 62.8973 121.378 62.944 121.043 62.944C120.348 62.944 120.044 62.7666 119.91 62.2532L119.449 60.4359C119.224 59.5335 118.81 59.378 117.877 59.378H116.812V58.877L116.809 58.8739Z" fill="white"/>
<path d="M123.361 55.8088V55.3638H124.933V55.9768H124.821L123.361 55.8088ZM124.933 62.219V62.832H123.361V62.387L124.821 62.219H124.933ZM124.429 58.8178C124.429 57.6696 124.429 56.5089 124.395 55.3607H125.472C125.438 56.4872 125.438 57.6478 125.438 58.8178V59.241C125.438 60.5231 125.438 61.6837 125.472 62.832H124.395C124.429 61.7055 124.429 60.5449 124.429 59.3748V58.8178ZM128.043 55.3607L128.548 55.9177H124.933V55.3607H128.939L129.017 57.346H128.388L128.04 55.3607H128.043ZM127.47 59.2753H124.933V58.7618H127.47V59.2753ZM129.243 60.8498L129.165 62.8351H124.933V62.2781H128.773L128.269 62.8351L128.617 60.8498H129.246H129.243ZM127.113 58.8739L127.282 57.6914H127.787V60.3333H127.282L127.113 59.0948V58.8707V58.8739Z" fill="white"/>
<path d="M130.533 62.387L131.655 62.219H131.88L133.114 62.387V62.832H130.533V62.387ZM133.881 55.3047H134.555L137.136 62.832H136.093L133.838 56.1511H134.094L131.805 62.832H131.279L133.881 55.3047ZM132.566 59.8789H135.598L135.776 60.3924H132.387L132.566 59.8789ZM134.777 62.387L136.193 62.219H136.418L137.809 62.387V62.832H134.777V62.387Z" fill="white"/>
<path d="M139.156 55.8088V55.3638H142.3V55.8088L140.841 55.9768H140.615L139.156 55.8088ZM140.728 62.219V62.832H139.156V62.387L140.615 62.219H140.728ZM140.189 55.3607H141.267C141.232 56.5089 141.232 57.6696 141.232 58.8178V59.5989C141.232 60.548 141.232 61.7055 141.267 62.832H140.189C140.224 61.6837 140.224 60.5231 140.224 59.3748V58.8178C140.224 57.6478 140.224 56.4872 140.189 55.3607ZM144.847 60.7378L144.734 62.8351H140.728V62.2781H144.342L143.725 62.8351L144.173 60.7378H144.847Z" fill="white"/>
<path d="M150.168 55.8088V55.3638H151.74V55.9768H151.627L150.168 55.8088ZM151.737 62.219V62.832H150.165V62.387L151.624 62.219H151.737ZM151.233 58.8178C151.233 57.6696 151.233 56.5089 151.198 55.3607H152.276C152.241 56.4872 152.241 57.6478 152.241 58.8178V59.241C152.241 60.5231 152.241 61.6837 152.276 62.832H151.198C151.233 61.7055 151.233 60.5449 151.233 59.3748V58.8178ZM154.847 55.3607L155.351 55.9177H151.737V55.3607H155.743L155.821 57.346H155.192L154.844 55.3607H154.847ZM154.274 59.2753H151.737V58.7618H154.274V59.2753ZM156.05 60.8498L155.972 62.8351H151.74V62.2781H155.58L155.076 62.8351L155.424 60.8498H156.053H156.05ZM153.917 58.8739L154.086 57.6914H154.59V60.3333H154.086L153.917 59.0948V58.8707V58.8739Z" fill="white"/>
<path d="M161.65 61.0832C161.65 60.3581 161.211 60.0345 160.234 59.6549L159.808 59.4869C158.662 59.0419 157.879 58.3946 157.879 57.2558C157.879 55.9737 158.969 55.1927 160.394 55.1927C161.146 55.1927 161.741 55.4261 162.223 55.7839L162.154 57.234H161.481L161.168 55.5505L161.885 55.9177V56.4747C161.334 55.9395 160.92 55.7497 160.325 55.7497C159.448 55.7497 158.787 56.1853 158.787 57.0224C158.787 57.7256 159.248 58.1364 160.068 58.4507L160.507 58.6187C161.988 59.1881 162.561 59.8354 162.561 60.884C162.561 62.2003 161.45 63.0031 159.912 63.0031C159.069 63.0031 158.252 62.7355 157.735 62.4119L157.804 60.8498H158.477L158.769 62.5675L158.039 62.2563V61.7211C158.734 62.2221 159.116 62.4461 159.88 62.4461C160.945 62.4461 161.653 61.9545 161.653 61.0863L161.65 61.0832Z" fill="white"/>
<path d="M164.444 55.9177L164.948 55.3607L164.588 57.346H163.958L164.049 55.3607H170.178L170.269 57.346H169.64L169.28 55.3607L169.784 55.9177H164.441H164.444ZM167.228 62.219L168.8 62.387V62.832H165.433V62.387L167.006 62.219H167.231H167.228ZM166.611 58.8178C166.611 57.6696 166.611 56.5089 166.577 55.3607H167.654C167.62 56.4872 167.62 57.6478 167.62 58.8178V59.3748C167.62 60.5231 167.62 61.6837 167.654 62.832H166.577C166.611 61.7055 166.611 60.5449 166.611 59.3748V58.8178Z" fill="white"/>
<path d="M170.608 62.387L171.729 62.219H171.954L173.188 62.387V62.832H170.608V62.387ZM173.953 55.3047H174.626L177.207 62.832H176.164L173.909 56.1511H174.166L171.876 62.832H171.35L173.953 55.3047ZM172.637 59.8789H175.669L175.847 60.3924H172.459L172.637 59.8789ZM174.848 62.387L176.264 62.219H176.489L177.88 62.387V62.832H174.848V62.387Z" fill="white"/>
<path d="M178.867 55.9177L179.371 55.3607L179.011 57.346H178.381L178.472 55.3607H184.601L184.692 57.346H184.063L183.703 55.3607L184.207 55.9177H178.864H178.867ZM181.651 62.219L183.223 62.387V62.832H179.856V62.387L181.429 62.219H181.654H181.651ZM181.034 58.8178C181.034 57.6696 181.034 56.5089 181 55.3607H182.077C182.043 56.4872 182.043 57.6478 182.043 58.8178V59.3748C182.043 60.5231 182.043 61.6837 182.077 62.832H181C181.034 61.7055 181.034 60.5449 181.034 59.3748V58.8178Z" fill="white"/>
<path d="M186.265 55.8088V55.3638H187.837V55.9768H187.724L186.265 55.8088ZM187.837 62.219V62.832H186.265V62.387L187.724 62.219H187.837ZM187.333 58.8178C187.333 57.6696 187.333 56.5089 187.298 55.3607H188.376C188.341 56.4872 188.341 57.6478 188.341 58.8178V59.241C188.341 60.5231 188.341 61.6837 188.376 62.832H187.298C187.333 61.7055 187.333 60.5449 187.333 59.3748V58.8178ZM190.947 55.3607L191.451 55.9177H187.837V55.3607H191.843L191.921 57.346H191.291L190.944 55.3607H190.947ZM190.374 59.2753H187.837V58.7618H190.374V59.2753ZM192.146 60.8498L192.068 62.8351H187.837V62.2781H191.677L191.172 62.8351L191.52 60.8498H192.15H192.146ZM190.014 58.8739L190.183 57.6914H190.687V60.3333H190.183L190.014 59.0948V58.8707V58.8739Z" fill="white"/>
</svg>
